<svg width="441" height="562" viewBox="0 0 441 562" fill="none" xmlns="http://www.w3.org/2000/svg">
<path d="M64.4845 488.042C23.1947 446.826 -0.00164448 390.926 -0.00170898 332.639C-0.00177349 274.351 23.1945 218.451 64.4842 177.235L95.6209 208.316C62.5892 241.288 44.0322 286.009 44.0322 332.639C44.0323 379.269 62.5894 423.989 95.6212 456.961L64.4845 488.042Z" fill="url(#paint0_radial_178_621)"/>
<path d="M375.851 488.042C417.141 446.826 440.338 390.926 440.338 332.639C440.338 274.351 417.141 218.451 375.852 177.235L344.715 208.316C377.747 241.288 396.304 286.009 396.304 332.639C396.304 379.269 377.747 423.989 344.715 456.961L375.851 488.042Z" fill="url(#paint1_radial_178_621)"/>
<path d="M239.433 77.6223L239.432 77.6225L120.519 93.5795L120.489 93.5835L120.46 93.5918C120.405 93.6078 120.353 93.6238 120.304 93.6387L120.303 93.639C120.264 93.6513 120.226 93.6628 120.187 93.6742C120.173 93.676 120.159 93.6778 120.145 93.6797C119.994 93.6992 119.826 93.7209 119.667 93.7485L119.635 93.7542L119.604 93.765C119.277 93.8795 118.955 94.0177 118.661 94.1814C118.654 94.1841 118.648 94.1866 118.644 94.1887C118.642 94.1893 118.641 94.1898 118.64 94.1904C118.502 94.2407 118.378 94.2976 118.27 94.3526C118.261 94.3567 118.25 94.3613 118.227 94.3708L118.224 94.3721C118.202 94.3809 118.168 94.3948 118.132 94.4122L118.092 94.432L118.057 94.4601C117.855 94.6232 117.657 94.8064 117.49 95.0037C117.332 95.1395 117.196 95.2843 117.078 95.4228L116.993 95.4779L116.951 95.6166C116.95 95.617 116.95 95.618 116.95 95.6194C116.946 95.6312 116.93 95.6755 116.92 95.7338C116.875 95.8445 116.85 95.9496 116.831 96.0358C116.821 96.066 116.811 96.0965 116.802 96.1247L116.801 96.1262C116.791 96.1602 116.781 96.1909 116.771 96.2195C116.706 96.3891 116.655 96.565 116.617 96.7393L116.608 96.7816V96.8249L116.608 156.1C116.608 156.126 116.611 156.153 116.616 156.181C116.621 156.203 116.627 156.225 116.635 156.246C116.667 156.423 116.722 156.596 116.784 156.75C116.825 156.97 116.892 157.19 116.997 157.405L117.01 157.432L117.027 157.456C117.513 158.159 118.316 158.708 119.306 159.025C119.335 159.039 119.365 159.053 119.394 159.067V159.113L119.692 159.191L190.616 177.891L190.666 177.904H190.687L190.69 177.905L190.7 177.907C190.831 177.928 190.988 177.952 191.141 177.962C191.433 178.022 191.726 178.06 192.019 178.077C192.15 178.099 192.275 178.115 192.412 178.123L192.424 178.124H192.436H192.459H192.479L192.499 178.122L192.51 178.121C192.638 178.108 192.788 178.093 192.934 178.065C193.086 178.071 193.246 178.071 193.396 178.063L193.414 178.062L193.432 178.06L319.867 160.269L320.211 160.221V160.205C320.359 160.175 320.505 160.139 320.65 160.099L320.658 160.097L320.665 160.095C320.665 160.094 320.666 160.094 320.667 160.094L320.684 160.089L320.71 160.082C320.718 160.08 320.728 160.077 320.74 160.074C321.264 159.922 321.766 159.711 322.189 159.435L322.258 159.39L322.04 159.055L322.258 159.39C322.69 159.108 323.041 158.764 323.294 158.385C323.308 158.367 323.329 158.337 323.351 158.297C323.561 157.948 323.682 157.571 323.711 157.182L323.728 157.16V157.024V97.7433V97.6471L323.716 97.6228C323.712 97.5374 323.698 97.456 323.688 97.4029C323.677 97.3369 323.665 97.2619 323.642 97.178C323.634 97.114 323.619 97.0587 323.613 97.0379C323.603 96.994 323.588 96.9624 323.581 96.9474C323.573 96.9309 323.565 96.9161 323.556 96.9031C323.469 96.6608 323.339 96.4337 323.181 96.2271L323.164 96.2045L323.159 96.2L323.154 96.1889L323.126 96.1552C323.038 96.0486 322.947 95.9467 322.842 95.8436L322.778 95.781C322.745 95.7467 322.712 95.7187 322.695 95.7047L322.691 95.7018C322.678 95.6907 322.672 95.6855 322.67 95.6837L322.653 95.6654L322.633 95.6488C322.447 95.4928 322.241 95.3591 322.051 95.2427L322.035 95.2329L322.018 95.2246C321.997 95.2142 321.981 95.2046 321.933 95.1732L321.917 95.1625L321.9 95.1536C321.774 95.0881 321.636 95.0224 321.497 94.9645L321.482 94.9584L321.469 94.9541C321.469 94.9541 321.469 94.9541 321.468 94.954C321.467 94.9535 321.462 94.9513 321.448 94.9448L321.445 94.9433C321.43 94.9362 321.402 94.9234 321.369 94.9108C321.343 94.8989 321.318 94.8881 321.3 94.8799C321.271 94.8677 321.254 94.86 321.24 94.8534L321.218 94.8423L321.194 94.8341C320.94 94.7472 320.672 94.6677 320.402 94.6037L320.357 94.5929H320.344C320.338 94.5917 320.33 94.5904 320.322 94.5893L320.104 94.5488L320.093 94.5466L242.17 77.7959V77.7892L241.856 77.7207C241.078 77.5516 240.232 77.518 239.433 77.6223ZM323.716 157.069C323.716 157.064 323.717 157.065 323.716 157.071V157.069ZM138.891 97.8619L240.107 84.2815L255.381 87.5694L157.346 102.728L138.891 97.8619ZM173.569 107.004L273.739 91.5108L299.602 97.0685L192.868 112.094L173.569 107.004ZM126.324 153.828L126.335 101.655L187.592 117.81L187.58 169.983L126.324 153.828ZM197.295 118.236L314.026 101.808V154.326L197.295 170.747V118.236Z" fill="url(#paint2_radial_178_621)" stroke="url(#paint3_radial_178_621)" stroke-width="0.8"/>
<defs>
<radialGradient id="paint0_radial_178_621" cx="0" cy="0" r="1" gradientUnits="userSpaceOnUse" gradientTransform="translate(220.168 332.638) rotate(90) scale(219.774 220.17)">
<stop offset="0.7" stop-color="#737373" stop-opacity="0"/>
<stop offset="1" stop-color="white"/>
</radialGradient>
<radialGradient id="paint1_radial_178_621" cx="0" cy="0" r="1" gradientUnits="userSpaceOnUse" gradientTransform="translate(220.168 332.638) rotate(90) scale(219.774 220.17)">
<stop offset="0.7" stop-color="#737373" stop-opacity="0"/>
<stop offset="1" stop-color="white"/>
</radialGradient>
<radialGradient id="paint2_radial_178_621" cx="0" cy="0" r="1" gradientUnits="userSpaceOnUse" gradientTransform="translate(224.685 250.459) rotate(-91.4999) scale(172.554 356.68)">
<stop stop-color="#999999" stop-opacity="0"/>
<stop offset="1" stop-color="white"/>
</radialGradient>
<radialGradient id="paint3_radial_178_621" cx="0" cy="0" r="1" gradientUnits="userSpaceOnUse" gradientTransform="translate(224.685 250.459) rotate(-91.4999) scale(172.554 356.68)">
<stop stop-color="#999999" stop-opacity="0"/>
<stop offset="1" stop-color="white"/>
</radialGradient>
</defs>
</svg>
