<svg width="1013" height="415" viewBox="0 0 1013 415" fill="none" xmlns="http://www.w3.org/2000/svg">
<path fill-rule="evenodd" clip-rule="evenodd" d="M608.742 325.968L460.38 280.359V265.857L608.742 311.466V325.968ZM891.666 280.359L743.304 325.968V311.466L891.666 265.857V280.359ZM682.924 402.872L729.422 388.586V364.704C729.422 361.469 731.659 358.639 734.84 357.965L896.548 308.286L896.575 308.259C898.3 307.72 900.214 307.909 901.831 308.771C903.449 309.634 904.662 311.09 905.201 312.842C905.389 313.489 905.497 314.189 905.497 314.863V334.46L952.049 320.146V276.263L951.241 276.505L901.184 291.897C900.834 292.032 900.484 292.14 900.106 292.221L682.924 358.989L682.924 402.872ZM669.122 358.989L614.188 342.088C613.837 342.007 613.487 341.926 613.136 341.791L451.539 292.113H451.431L403.882 277.503L400 276.263V320.146L446.498 334.459V314.863C446.498 312.572 447.63 310.442 449.544 309.149C451.431 307.855 453.857 307.585 455.987 308.421L617.695 358.099C620.606 358.989 622.574 361.685 622.574 364.704V388.559L669.126 402.872L669.122 358.989ZM900.106 233.888L682.924 300.657V344.54L729.422 330.254V306.372C729.422 303.137 731.659 300.307 734.84 299.606L896.548 249.927H896.575C898.3 249.388 900.214 249.55 901.831 250.412C903.449 251.275 904.662 252.758 905.201 254.51C905.389 255.157 905.497 255.83 905.497 256.531V276.128L939.73 265.588L952.049 261.814V217.931L951.214 218.174L901.184 233.565C900.834 233.7 900.483 233.807 900.106 233.888ZM403.802 219.09L400.001 217.931V261.814L402.32 262.515L446.472 276.101L446.499 256.505C446.499 252.677 449.572 249.604 453.4 249.604C454.262 249.604 455.125 249.766 455.934 250.089L617.642 299.768C620.553 300.657 622.548 303.326 622.548 306.372V330.227L669.127 344.54V300.657L617.965 284.942L614.164 283.783H614.191C613.841 283.702 613.49 283.594 613.14 283.46L451.542 233.781H451.434L403.831 219.144L403.802 219.09ZM608.742 267.637V253.134L460.352 207.499V222.001L608.715 267.61L608.742 267.637ZM891.666 222.028L891.693 207.499L743.331 253.107V267.61L891.693 222.001L891.666 222.028ZM900.077 175.557L682.922 242.298V286.155L729.42 271.869V248.04C729.42 244.779 731.658 241.975 734.838 241.275L896.547 191.596H896.574C898.299 191.057 900.213 191.219 901.83 192.081C903.447 192.944 904.66 194.399 905.199 196.151C905.388 196.825 905.496 197.499 905.496 198.2V217.796L939.837 207.23L952.048 203.456V159.573L951.212 159.815L901.183 175.207V175.234C900.833 175.369 900.482 175.477 900.105 175.558L900.077 175.557ZM403.801 160.758L400 159.572V203.456L402.291 204.157L446.498 217.743V198.146C446.498 195.855 447.63 193.726 449.544 192.432C451.431 191.138 453.857 190.868 455.986 191.704L617.694 241.383C620.605 242.272 622.573 244.968 622.573 247.987V271.842L669.125 286.155V242.272L617.964 226.557L614.163 225.398H614.19C613.839 225.317 613.489 225.209 613.139 225.074L451.541 175.396L451.433 175.369L403.83 160.732L403.801 160.758ZM608.741 209.305L460.379 163.697V149.194L608.741 194.803V209.305ZM891.665 163.697L743.302 209.305V194.803L891.665 149.194V163.697ZM669.121 183.967V227.851L622.623 213.564V189.682C622.623 186.663 620.628 183.968 617.744 183.078L456.036 133.399H456.009C453.879 132.564 451.48 132.833 449.567 134.127C447.68 135.394 446.548 137.551 446.521 139.842V159.438L402.314 145.852L400.023 145.151L400.05 101.241L669.121 183.967ZM952.045 101.243V145.127L939.888 148.873L905.547 159.413V139.816C905.547 139.115 905.439 138.442 905.25 137.795C904.711 136.043 903.498 134.56 901.881 133.697C900.263 132.835 898.35 132.673 896.598 133.212L734.889 182.891C731.709 183.592 729.471 186.395 729.471 189.657V213.512L682.919 227.852V183.969L734.566 168.092H734.647L791.172 150.733H791.253L847.752 133.373H847.832L904.358 116.014H904.439L952.045 101.243ZM449.676 81.7274L709.151 161.491L676.023 171.627L416.547 91.8906L449.676 81.7274ZM506.255 64.3414L473.154 74.477L732.602 154.241L765.676 144.078L506.256 64.3145L506.255 64.3414ZM562.834 46.9554L529.76 57.0634L789.18 136.848L822.255 126.685L562.862 46.9216L562.834 46.9554ZM619.413 29.5694L586.339 39.7319L845.787 119.44L878.888 109.278L619.44 29.5418L619.413 29.5694ZM902.337 102.108L935.492 91.892L676.017 12.1282L642.942 22.2907L902.337 102.108Z" fill="black"/>
<path fill-rule="evenodd" clip-rule="evenodd" d="M608.742 325.968L460.38 280.359V265.857L608.742 311.466V325.968ZM891.666 280.359L743.304 325.968V311.466L891.666 265.857V280.359ZM682.924 402.872L729.422 388.586V364.704C729.422 361.469 731.659 358.639 734.84 357.965L896.548 308.286L896.575 308.259C898.3 307.72 900.214 307.909 901.831 308.771C903.449 309.634 904.662 311.09 905.201 312.842C905.389 313.489 905.497 314.189 905.497 314.863V334.46L952.049 320.146V276.263L951.241 276.505L901.184 291.897C900.834 292.032 900.484 292.14 900.106 292.221L682.924 358.989L682.924 402.872ZM669.122 358.989L614.188 342.088C613.837 342.007 613.487 341.926 613.136 341.791L451.539 292.113H451.431L403.882 277.503L400 276.263V320.146L446.498 334.459V314.863C446.498 312.572 447.63 310.442 449.544 309.149C451.431 307.855 453.857 307.585 455.987 308.421L617.695 358.099C620.606 358.989 622.574 361.685 622.574 364.704V388.559L669.126 402.872L669.122 358.989ZM900.106 233.888L682.924 300.657V344.54L729.422 330.254V306.372C729.422 303.137 731.659 300.307 734.84 299.606L896.548 249.927H896.575C898.3 249.388 900.214 249.55 901.831 250.412C903.449 251.275 904.662 252.758 905.201 254.51C905.389 255.157 905.497 255.83 905.497 256.531V276.128L939.73 265.588L952.049 261.814V217.931L951.214 218.174L901.184 233.565C900.834 233.7 900.483 233.807 900.106 233.888ZM403.802 219.09L400.001 217.931V261.814L402.32 262.515L446.472 276.101L446.499 256.505C446.499 252.677 449.572 249.604 453.4 249.604C454.262 249.604 455.125 249.766 455.934 250.089L617.642 299.768C620.553 300.657 622.548 303.326 622.548 306.372V330.227L669.127 344.54V300.657L617.965 284.942L614.164 283.783H614.191C613.841 283.702 613.49 283.594 613.14 283.46L451.542 233.781H451.434L403.831 219.144L403.802 219.09ZM608.742 267.637V253.134L460.352 207.499V222.001L608.715 267.61L608.742 267.637ZM891.666 222.028L891.693 207.499L743.331 253.107V267.61L891.693 222.001L891.666 222.028ZM900.077 175.557L682.922 242.298V286.155L729.42 271.869V248.04C729.42 244.779 731.658 241.975 734.838 241.275L896.547 191.596H896.574C898.299 191.057 900.213 191.219 901.83 192.081C903.447 192.944 904.66 194.399 905.199 196.151C905.388 196.825 905.496 197.499 905.496 198.2V217.796L939.837 207.23L952.048 203.456V159.573L951.212 159.815L901.183 175.207V175.234C900.833 175.369 900.482 175.477 900.105 175.558L900.077 175.557ZM403.801 160.758L400 159.572V203.456L402.291 204.157L446.498 217.743V198.146C446.498 195.855 447.63 193.726 449.544 192.432C451.431 191.138 453.857 190.868 455.986 191.704L617.694 241.383C620.605 242.272 622.573 244.968 622.573 247.987V271.842L669.125 286.155V242.272L617.964 226.557L614.163 225.398H614.19C613.839 225.317 613.489 225.209 613.139 225.074L451.541 175.396L451.433 175.369L403.83 160.732L403.801 160.758ZM608.741 209.305L460.379 163.697V149.194L608.741 194.803V209.305ZM891.665 163.697L743.302 209.305V194.803L891.665 149.194V163.697ZM669.121 183.967V227.851L622.623 213.564V189.682C622.623 186.663 620.628 183.968 617.744 183.078L456.036 133.399H456.009C453.879 132.564 451.48 132.833 449.567 134.127C447.68 135.394 446.548 137.551 446.521 139.842V159.438L402.314 145.852L400.023 145.151L400.05 101.241L669.121 183.967ZM952.045 101.243V145.127L939.888 148.873L905.547 159.413V139.816C905.547 139.115 905.439 138.442 905.25 137.795C904.711 136.043 903.498 134.56 901.881 133.697C900.263 132.835 898.35 132.673 896.598 133.212L734.889 182.891C731.709 183.592 729.471 186.395 729.471 189.657V213.512L682.919 227.852V183.969L734.566 168.092H734.647L791.172 150.733H791.253L847.752 133.373H847.832L904.358 116.014H904.439L952.045 101.243ZM449.676 81.7274L709.151 161.491L676.023 171.627L416.547 91.8906L449.676 81.7274ZM506.255 64.3414L473.154 74.477L732.602 154.241L765.676 144.078L506.256 64.3145L506.255 64.3414ZM562.834 46.9554L529.76 57.0634L789.18 136.848L822.255 126.685L562.862 46.9216L562.834 46.9554ZM619.413 29.5694L586.339 39.7319L845.787 119.44L878.888 109.278L619.44 29.5418L619.413 29.5694ZM902.337 102.108L935.492 91.892L676.017 12.1282L642.942 22.2907L902.337 102.108Z" fill="url(#paint0_linear_512_476)"/>
<path d="M350 157.5L283.333 90.8333V140.833H166.667V174.167H283.333V224.167M116.667 190.833L50 257.5L116.667 324.167V274.167H233.333V240.833H116.667V190.833Z" fill="url(#paint1_linear_512_476)"/>
<defs>
<linearGradient id="paint0_linear_512_476" x1="675.629" y1="397.322" x2="675.831" y2="12.1281" gradientUnits="userSpaceOnUse">
<stop stop-color="#999999"/>
<stop offset="1" stop-color="white"/>
</linearGradient>
<linearGradient id="paint1_linear_512_476" x1="199.785" y1="320.852" x2="199.918" y2="90.8332" gradientUnits="userSpaceOnUse">
<stop stop-color="#999999"/>
<stop offset="1" stop-color="white"/>
</linearGradient>
</defs>
</svg>
