<svg width="1014" height="416" viewBox="0 0 1014 416" fill="none" xmlns="http://www.w3.org/2000/svg">
<path d="M500.992 64.0299C451.292 65.9795 405.021 90.0351 374.949 129.656C371.93 133.618 367.054 140.882 364.946 144.53C364.223 145.819 363.342 147.171 363.028 147.517C362.713 147.863 361.046 150.976 359.316 154.435C350.225 172.673 344.563 191.32 342.141 211.005C340.505 224.526 340.726 240.815 342.739 253.33C342.99 254.965 343.368 257.229 343.557 258.361C344.406 263.895 346.01 271.254 346.356 271.254C346.545 271.254 354.189 263.801 367.746 250.405L374.823 243.425L374.666 241.223C374.32 235.375 374.603 219.715 375.138 215.281C377.529 195.408 383.568 177.893 393.823 161.07C399.799 151.227 406.248 143.146 414.835 134.719C435.722 114.248 461.326 102.11 492.027 98.1165C497.249 97.4561 511.907 97.1731 517.663 97.6448C549.213 100.223 577.775 113.084 600.046 134.782C622.536 156.667 636.157 184.402 639.774 215.659C640.56 222.482 640.56 239.022 639.774 245.469C637.792 261.443 633.766 275.216 626.972 289.02C620.901 301.41 613.666 311.755 603.757 322.132C599.417 326.691 598.347 328.232 597.403 331.282C596.711 333.484 596.554 337.729 597.089 340.056C598.882 347.728 606.714 353.294 614.83 352.602C620.083 352.162 623.165 350.244 629.079 343.829C641.001 330.874 649.085 319.176 656.697 303.799C666.574 283.832 672.016 263.518 673.557 240.752C674.029 233.834 673.746 218.394 673.054 212.137C670.066 185.691 661.007 160.472 646.663 138.712C639.931 128.493 634.458 121.826 625.399 112.738C617.032 104.343 610.489 98.9026 601.084 92.5193C588.596 84.0291 573.434 76.5765 559.342 72.0484C545.47 67.6147 530.183 64.7532 517.034 64.1871C508.636 63.8413 506.811 63.8098 500.992 64.0299Z" fill="black"/>
<path d="M500.992 64.0299C451.292 65.9795 405.021 90.0351 374.949 129.656C371.93 133.618 367.054 140.882 364.946 144.53C364.223 145.819 363.342 147.171 363.028 147.517C362.713 147.863 361.046 150.976 359.316 154.435C350.225 172.673 344.563 191.32 342.141 211.005C340.505 224.526 340.726 240.815 342.739 253.33C342.99 254.965 343.368 257.229 343.557 258.361C344.406 263.895 346.01 271.254 346.356 271.254C346.545 271.254 354.189 263.801 367.746 250.405L374.823 243.425L374.666 241.223C374.32 235.375 374.603 219.715 375.138 215.281C377.529 195.408 383.568 177.893 393.823 161.07C399.799 151.227 406.248 143.146 414.835 134.719C435.722 114.248 461.326 102.11 492.027 98.1165C497.249 97.4561 511.907 97.1731 517.663 97.6448C549.213 100.223 577.775 113.084 600.046 134.782C622.536 156.667 636.157 184.402 639.774 215.659C640.56 222.482 640.56 239.022 639.774 245.469C637.792 261.443 633.766 275.216 626.972 289.02C620.901 301.41 613.666 311.755 603.757 322.132C599.417 326.691 598.347 328.232 597.403 331.282C596.711 333.484 596.554 337.729 597.089 340.056C598.882 347.728 606.714 353.294 614.83 352.602C620.083 352.162 623.165 350.244 629.079 343.829C641.001 330.874 649.085 319.176 656.697 303.799C666.574 283.832 672.016 263.518 673.557 240.752C674.029 233.834 673.746 218.394 673.054 212.137C670.066 185.691 661.007 160.472 646.663 138.712C639.931 128.493 634.458 121.826 625.399 112.738C617.032 104.343 610.489 98.9026 601.084 92.5193C588.596 84.0291 573.434 76.5765 559.342 72.0484C545.47 67.6147 530.183 64.7532 517.034 64.1871C508.636 63.8413 506.811 63.8098 500.992 64.0299Z" fill="url(#paint0_linear_512_485)"/>
<path d="M500.269 180.534C490.297 182.043 480.986 186.477 473.689 193.112C472.179 194.495 455.539 210.847 425.341 240.594C400.586 264.995 396.685 268.8 380.077 284.932C369.948 294.774 339.814 324.835 339.939 324.961C340.002 325.024 345.853 323.609 352.899 321.785C359.945 319.961 367.211 318.106 369.036 317.666C372.181 316.88 375.138 316.125 391.212 311.974C395.018 311 399.202 309.868 400.491 309.459C401.781 309.05 405.965 307.918 409.771 306.943C413.577 305.968 426.191 302.698 437.766 299.648C449.373 296.629 473.28 290.434 490.895 285.843C509.579 281.001 524.143 277.07 525.811 276.41C532.353 273.831 537.606 270.341 542.859 265.121C550 258.014 554.372 249.933 556.543 239.808C557.172 236.978 557.266 235.563 557.266 229.745C557.266 223.865 557.172 222.607 556.574 219.997C555.096 213.614 552.548 207.482 549.497 202.797C542.23 191.665 530.781 183.867 517.695 181.131C512.851 180.125 504.767 179.842 500.269 180.534Z" fill="black"/>
<path d="M500.269 180.534C490.297 182.043 480.986 186.477 473.689 193.112C472.179 194.495 455.539 210.847 425.341 240.594C400.586 264.995 396.685 268.8 380.077 284.932C369.948 294.774 339.814 324.835 339.939 324.961C340.002 325.024 345.853 323.609 352.899 321.785C359.945 319.961 367.211 318.106 369.036 317.666C372.181 316.88 375.138 316.125 391.212 311.974C395.018 311 399.202 309.868 400.491 309.459C401.781 309.05 405.965 307.918 409.771 306.943C413.577 305.968 426.191 302.698 437.766 299.648C449.373 296.629 473.28 290.434 490.895 285.843C509.579 281.001 524.143 277.07 525.811 276.41C532.353 273.831 537.606 270.341 542.859 265.121C550 258.014 554.372 249.933 556.543 239.808C557.172 236.978 557.266 235.563 557.266 229.745C557.266 223.865 557.172 222.607 556.574 219.997C555.096 213.614 552.548 207.482 549.497 202.797C542.23 191.665 530.781 183.867 517.695 181.131C512.851 180.125 504.767 179.842 500.269 180.534Z" fill="url(#paint1_linear_512_485)"/>
<path d="M415.685 339.961C414.93 340.181 414.332 340.307 414.332 340.244C414.332 340.181 413.766 340.338 413.074 340.59C412.382 340.841 411.816 340.967 411.816 340.904C411.816 340.841 411.249 340.967 410.557 341.219C409.865 341.47 409.299 341.596 409.299 341.533C409.299 341.47 408.733 341.596 408.041 341.848C406.94 342.225 403.323 343.2 402.285 343.388C402.064 343.42 401.624 343.546 401.278 343.671C400.932 343.766 400.303 343.954 399.862 344.049C399.422 344.112 396.78 344.803 393.949 345.527L388.853 346.847L389.86 347.917C393.351 351.533 399.265 353.388 404.424 352.413C410.306 351.313 415.905 346.25 417.415 340.653C417.792 339.332 417.729 339.301 415.685 339.961Z" fill="black"/>
<path d="M415.685 339.961C414.93 340.181 414.332 340.307 414.332 340.244C414.332 340.181 413.766 340.338 413.074 340.59C412.382 340.841 411.816 340.967 411.816 340.904C411.816 340.841 411.249 340.967 410.557 341.219C409.865 341.47 409.299 341.596 409.299 341.533C409.299 341.47 408.733 341.596 408.041 341.848C406.94 342.225 403.323 343.2 402.285 343.388C402.064 343.42 401.624 343.546 401.278 343.671C400.932 343.766 400.303 343.954 399.862 344.049C399.422 344.112 396.78 344.803 393.949 345.527L388.853 346.847L389.86 347.917C393.351 351.533 399.265 353.388 404.424 352.413C410.306 351.313 415.905 346.25 417.415 340.653C417.792 339.332 417.729 339.301 415.685 339.961Z" fill="url(#paint2_linear_512_485)"/>
<defs>
<linearGradient id="paint0_linear_512_485" x1="507.422" y1="22.5603" x2="507.422" y2="352.66" gradientUnits="userSpaceOnUse">
<stop stop-color="#999999"/>
<stop offset="1" stop-color="white"/>
</linearGradient>
<linearGradient id="paint1_linear_512_485" x1="448.603" y1="159.427" x2="448.603" y2="324.963" gradientUnits="userSpaceOnUse">
<stop stop-color="#999999"/>
<stop offset="1" stop-color="white"/>
</linearGradient>
<linearGradient id="paint2_linear_512_485" x1="403.224" y1="337.659" x2="403.224" y2="352.671" gradientUnits="userSpaceOnUse">
<stop stop-color="#999999"/>
<stop offset="1" stop-color="white"/>
</linearGradient>
</defs>
</svg>
