<svg width="441" height="562" viewBox="0 0 441 562" fill="none" xmlns="http://www.w3.org/2000/svg">
<path d="M65.1478 488.04C23.8584 446.825 0.662174 390.925 0.662109 332.638C0.662045 274.351 23.8581 218.451 65.1475 177.236L96.284 208.316C63.2525 241.289 44.6957 286.009 44.6957 332.638C44.6958 379.268 63.2527 423.988 96.2843 456.96L65.1478 488.04Z" fill="url(#paint0_radial_178_620)"/>
<path d="M376.512 488.04C417.802 446.825 440.998 390.925 440.998 332.638C440.998 274.351 417.802 218.451 376.513 177.236L345.376 208.316C378.408 241.289 396.964 286.009 396.964 332.638C396.964 379.268 378.407 423.988 345.376 456.96L376.512 488.04Z" fill="url(#paint1_radial_178_620)"/>
<path d="M220.83 163.748C214.222 163.748 207.885 161.123 203.213 156.451C198.54 151.779 195.916 145.441 195.916 138.834C195.916 129.532 200.982 121.394 208.373 117.158L289.013 70.485L243.087 150.045C238.935 158.184 230.547 163.748 220.83 163.748ZM220.83 55.7854C235.862 55.7854 249.897 59.9378 262.105 66.7478L244.665 76.7966C237.44 73.973 229.135 72.3951 220.83 72.3951C203.209 72.3951 186.31 79.3948 173.851 91.8545C161.391 104.314 154.391 121.213 154.391 138.834C154.391 157.187 161.783 173.797 173.825 185.756H173.908C177.147 188.995 177.147 194.227 173.908 197.466C170.669 200.705 165.354 200.705 162.115 197.549C147.083 182.517 137.782 161.755 137.782 138.834C137.782 116.808 146.531 95.6843 162.106 80.1097C177.681 64.5351 198.804 55.7854 220.83 55.7854ZM303.878 138.834C303.878 161.755 294.577 182.517 279.545 197.549C276.306 200.705 271.074 200.705 267.835 197.466C264.597 194.227 264.597 188.995 267.835 185.756C279.877 173.714 287.269 157.187 287.269 138.834C287.269 130.529 285.691 122.224 282.784 114.75L292.833 97.3096C299.726 109.767 303.878 123.719 303.878 138.834Z" fill="url(#paint2_radial_178_620)"/>
<defs>
<radialGradient id="paint0_radial_178_620" cx="0" cy="0" r="1" gradientUnits="userSpaceOnUse" gradientTransform="translate(220.83 332.638) rotate(90) scale(219.772 220.168)">
<stop offset="0.7" stop-color="#737373" stop-opacity="0"/>
<stop offset="1" stop-color="white"/>
</radialGradient>
<radialGradient id="paint1_radial_178_620" cx="0" cy="0" r="1" gradientUnits="userSpaceOnUse" gradientTransform="translate(220.83 332.638) rotate(90) scale(219.772 220.168)">
<stop offset="0.7" stop-color="#737373" stop-opacity="0"/>
<stop offset="1" stop-color="white"/>
</radialGradient>
<radialGradient id="paint2_radial_178_620" cx="0" cy="0" r="1" gradientUnits="userSpaceOnUse" gradientTransform="translate(220.83 317.806) rotate(-90) scale(262.021 301.976)">
<stop stop-color="#999999" stop-opacity="0"/>
<stop offset="1" stop-color="white"/>
</radialGradient>
</defs>
</svg>
