<svg width="441" height="562" viewBox="0 0 441 562" fill="none" xmlns="http://www.w3.org/2000/svg">
<path d="M65.1478 488.04C23.8584 446.825 0.662174 390.925 0.662109 332.638C0.662045 274.351 23.8581 218.451 65.1475 177.236L96.284 208.316C63.2525 241.289 44.6957 286.009 44.6957 332.638C44.6958 379.268 63.2527 423.988 96.2843 456.96L65.1478 488.04Z" fill="url(#paint0_radial_178_620)"/>
<path d="M376.512 488.04C417.802 446.825 440.998 390.925 440.998 332.638C440.998 274.351 417.802 218.451 376.513 177.236L345.376 208.316C378.408 241.289 396.964 286.009 396.964 332.638C396.964 379.268 378.407 423.988 345.376 456.96L376.512 488.04Z" fill="url(#paint1_radial_178_620)"/>
<path d="M217.954 55.8545C193.612 56.8097 170.949 68.5955 156.221 88.0075C154.742 89.9487 152.354 93.5076 151.321 95.2947C150.967 95.9264 150.536 96.5888 150.382 96.7583C150.228 96.9278 149.411 98.453 148.564 100.148C144.111 109.083 141.338 118.219 140.152 127.864C139.351 134.488 139.459 142.469 140.445 148.601C140.568 149.402 140.753 150.511 140.845 151.066C141.261 153.777 142.047 157.382 142.216 157.382C142.309 157.382 146.052 153.731 152.693 147.168L156.159 143.748L156.082 142.669C155.912 139.804 156.051 132.131 156.313 129.959C157.484 120.222 160.442 111.641 165.464 103.398C168.392 98.5763 171.55 94.6168 175.756 90.4879C185.986 80.4584 198.526 74.5116 213.563 72.555C216.12 72.2314 223.3 72.0928 226.119 72.3239C241.572 73.5872 255.56 79.8884 266.468 90.5187C277.484 101.242 284.155 114.83 285.926 130.144C286.311 133.487 286.311 141.591 285.926 144.749C284.956 152.575 282.984 159.323 279.656 166.087C276.683 172.157 273.139 177.226 268.286 182.31C266.16 184.544 265.636 185.298 265.174 186.793C264.835 187.871 264.758 189.951 265.02 191.091C265.898 194.85 269.734 197.577 273.709 197.238C276.282 197.023 277.792 196.083 280.688 192.94C286.527 186.593 290.487 180.861 294.215 173.328C299.053 163.545 301.718 153.592 302.473 142.438C302.704 139.049 302.565 131.484 302.226 128.418C300.763 115.462 296.326 103.106 289.3 92.4445C286.003 87.4375 283.323 84.1713 278.886 79.7189C274.788 75.6054 271.583 72.9401 266.977 69.8126C260.86 65.6529 253.434 62.0016 246.532 59.7831C239.738 57.6108 232.251 56.2089 225.811 55.9315C221.697 55.7621 220.804 55.7467 217.954 55.8545Z" fill="url(#paint2_radial_178_620)"/>
<path d="M217.599 113.087C212.716 113.848 208.155 116.085 204.581 119.431C203.842 120.129 195.692 128.376 180.902 143.379C168.777 155.686 166.866 157.605 158.732 165.741C153.771 170.705 139.012 185.866 139.073 185.93C139.104 185.961 141.97 185.248 145.421 184.328C148.872 183.408 152.431 182.472 153.324 182.25C154.865 181.854 156.313 181.473 164.186 179.38C166.05 178.888 168.099 178.317 168.731 178.111C169.362 177.905 171.411 177.334 173.275 176.842C175.14 176.351 181.318 174.701 186.987 173.163C192.672 171.64 204.381 168.516 213.008 166.201C222.16 163.758 229.293 161.776 230.109 161.443C233.314 160.142 235.887 158.382 238.46 155.749C241.957 152.165 244.098 148.089 245.161 142.982C245.469 141.555 245.516 140.841 245.516 137.907C245.516 134.942 245.469 134.307 245.177 132.991C244.453 129.771 243.205 126.679 241.71 124.316C238.151 118.701 232.544 114.768 226.134 113.389C223.762 112.881 219.802 112.738 217.599 113.087Z" fill="url(#paint3_radial_178_620)"/>
<path d="M176.172 193.495C175.802 193.606 175.509 193.669 175.509 193.638C175.509 193.606 175.232 193.685 174.893 193.812C174.554 193.939 174.277 194.002 174.277 193.971C174.277 193.939 174 194.002 173.661 194.129C173.322 194.256 173.044 194.319 173.044 194.288C173.044 194.256 172.767 194.319 172.428 194.446C171.889 194.637 170.117 195.128 169.609 195.223C169.501 195.239 169.285 195.303 169.116 195.366C168.946 195.414 168.638 195.509 168.422 195.557C168.207 195.588 166.913 195.937 165.526 196.302L163.03 196.968L163.523 197.507C165.233 199.331 168.13 200.267 170.656 199.775C173.537 199.22 176.28 196.667 177.019 193.844C177.204 193.178 177.173 193.162 176.172 193.495Z" fill="url(#paint4_radial_178_620)"/>
<defs>
<radialGradient id="paint0_radial_178_620" cx="0" cy="0" r="1" gradientUnits="userSpaceOnUse" gradientTransform="translate(220.83 332.638) rotate(90) scale(219.772 220.168)">
<stop offset="0.7" stop-color="#737373" stop-opacity="0"/>
<stop offset="1" stop-color="white"/>
</radialGradient>
<radialGradient id="paint1_radial_178_620" cx="0" cy="0" r="1" gradientUnits="userSpaceOnUse" gradientTransform="translate(220.83 332.638) rotate(90) scale(219.772 220.168)">
<stop offset="0.7" stop-color="#737373" stop-opacity="0"/>
<stop offset="1" stop-color="white"/>
</radialGradient>
<radialGradient id="paint2_radial_178_620" cx="0" cy="0" r="1" gradientUnits="userSpaceOnUse" gradientTransform="translate(220.83 317.805) rotate(-90) scale(262.019 297.28)">
<stop stop-color="#999999" stop-opacity="0"/>
<stop offset="1" stop-color="white"/>
</radialGradient>
<radialGradient id="paint3_radial_178_620" cx="0" cy="0" r="1" gradientUnits="userSpaceOnUse" gradientTransform="translate(220.83 317.805) rotate(-90) scale(262.019 297.28)">
<stop stop-color="#999999" stop-opacity="0"/>
<stop offset="1" stop-color="white"/>
</radialGradient>
<radialGradient id="paint4_radial_178_620" cx="0" cy="0" r="1" gradientUnits="userSpaceOnUse" gradientTransform="translate(220.83 317.805) rotate(-90) scale(262.019 297.28)">
<stop stop-color="#999999" stop-opacity="0"/>
<stop offset="1" stop-color="white"/>
</radialGradient>
</defs>
</svg>
