<svg width="441" height="562" viewBox="0 0 441 562" fill="none" xmlns="http://www.w3.org/2000/svg">
<path d="M65.1478 488.04C23.8584 446.825 0.662174 390.925 0.662109 332.638C0.662045 274.351 23.8581 218.451 65.1475 177.236L96.284 208.316C63.2525 241.289 44.6957 286.009 44.6957 332.638C44.6958 379.268 63.2527 423.988 96.2843 456.96L65.1478 488.04Z" fill="url(#paint0_radial_178_620)"/>
<path d="M376.512 488.04C417.802 446.825 440.998 390.925 440.998 332.638C440.998 274.351 417.802 218.451 376.513 177.236L345.376 208.316C378.408 241.289 396.964 286.009 396.964 332.638C396.964 379.268 378.407 423.988 345.376 456.96L376.512 488.04Z" fill="url(#paint1_radial_178_620)"/>
<path d="M220.83 163.748C234.616 163.748 245.744 152.619 245.744 138.834C245.744 129.532 240.678 121.394 233.287 117.158L152.648 70.4853L198.573 150.045C202.726 158.184 211.114 163.748 220.83 163.748ZM220.83 55.7859C205.798 55.7859 191.763 59.9383 179.555 66.7482L196.995 76.7969C204.221 73.9733 212.525 72.3954 220.83 72.3954C257.537 72.3954 287.268 102.126 287.268 138.834C287.268 157.187 279.877 173.797 267.835 185.755H267.752C264.513 188.994 264.513 194.226 267.752 197.465C270.991 200.704 276.306 200.704 279.545 197.548C294.576 182.517 303.878 161.755 303.878 138.834C303.878 93.1573 266.506 55.7859 220.83 55.7859ZM137.782 138.834C137.782 161.755 147.084 182.517 162.115 197.548C165.354 200.704 170.586 200.704 173.825 197.465C177.064 194.226 177.064 188.994 173.825 185.755C161.783 173.714 154.392 157.187 154.392 138.834C154.392 130.529 155.97 122.224 158.877 114.75L148.828 97.3097C141.935 109.767 137.782 123.719 137.782 138.834Z" fill="url(#paint2_radial_178_620)"/>
<defs>
<radialGradient id="paint0_radial_178_620" cx="0" cy="0" r="1" gradientUnits="userSpaceOnUse" gradientTransform="translate(220.83 332.638) rotate(90) scale(219.772 220.168)">
<stop offset="0.7" stop-color="#737373" stop-opacity="0"/>
<stop offset="1" stop-color="white"/>
</radialGradient>
<radialGradient id="paint1_radial_178_620" cx="0" cy="0" r="1" gradientUnits="userSpaceOnUse" gradientTransform="translate(220.83 332.638) rotate(90) scale(219.772 220.168)">
<stop offset="0.7" stop-color="#737373" stop-opacity="0"/>
<stop offset="1" stop-color="white"/>
</radialGradient>
<radialGradient id="paint2_radial_178_620" cx="0" cy="0" r="1" gradientUnits="userSpaceOnUse" gradientTransform="translate(220.83 317.805) rotate(-90) scale(262.019 301.973)">
<stop stop-color="#999999" stop-opacity="0"/>
<stop offset="1" stop-color="white"/>
</radialGradient>
</defs>
</svg>
