<svg width="441" height="562" viewBox="0 0 441 562" fill="none" xmlns="http://www.w3.org/2000/svg">
<path d="M64.4828 487.692C23.193 446.477 -0.00335346 390.577 -0.00341797 332.289C-0.00348247 274.002 23.1928 218.101 64.4825 176.886L95.6192 207.966C62.5875 240.939 44.0305 285.659 44.0305 332.289C44.0306 378.919 62.5877 423.639 95.6195 456.612L64.4828 487.692Z" fill="url(#paint0_radial_423_433)"/>
<path d="M375.85 487.692C417.139 446.477 440.336 390.577 440.336 332.289C440.336 274.002 417.14 218.101 375.85 176.886L344.713 207.966C377.745 240.939 396.302 285.659 396.302 332.289C396.302 378.919 377.745 423.639 344.713 456.612L375.85 487.692Z" fill="url(#paint1_radial_423_433)"/>
<path fill-rule="evenodd" clip-rule="evenodd" d="M193.374 174.669L134.296 156.507V150.733L193.374 168.894V174.669ZM306.036 156.507L246.957 174.669V168.894L306.036 150.733V156.507ZM222.914 205.293L241.429 199.604V190.094C241.429 188.806 242.32 187.679 243.587 187.41L307.98 167.628L307.991 167.617C308.678 167.403 309.44 167.478 310.084 167.821C310.728 168.165 311.211 168.744 311.425 169.442C311.5 169.7 311.543 169.979 311.543 170.247V178.05L330.081 172.351V154.876L329.759 154.973L309.826 161.102C309.687 161.155 309.547 161.198 309.397 161.231L222.914 187.818L222.914 205.293ZM217.418 187.818L195.543 181.088C195.403 181.056 195.264 181.024 195.124 180.97L130.775 161.188H130.732L111.798 155.37L110.252 154.876V172.351L128.768 178.05V170.247C128.768 169.335 129.219 168.487 129.981 167.971C130.732 167.456 131.698 167.349 132.546 167.682L196.939 187.464C198.098 187.818 198.882 188.891 198.882 190.094V199.593L217.419 205.293L217.418 187.818ZM309.396 138.002L222.914 164.59V182.065L241.429 176.376V166.866C241.429 165.578 242.32 164.451 243.587 164.171L307.98 144.389H307.991C308.678 144.175 309.44 144.239 310.084 144.582C310.728 144.926 311.211 145.516 311.425 146.214C311.5 146.472 311.543 146.74 311.543 147.019V154.822L325.175 150.626L330.081 149.123V131.648L329.748 131.745L309.826 137.874C309.687 137.927 309.547 137.97 309.396 138.002ZM111.766 132.11L110.253 131.648V149.123L111.176 149.402L128.758 154.812L128.768 147.008C128.768 145.484 129.992 144.26 131.516 144.26C131.86 144.26 132.203 144.325 132.525 144.454L196.918 164.236C198.077 164.59 198.872 165.653 198.872 166.866V176.365L217.42 182.065V164.59L197.047 158.332L195.533 157.871H195.544C195.404 157.839 195.265 157.796 195.125 157.742L130.776 137.96H130.734L111.778 132.131L111.766 132.11ZM193.374 151.441V145.666L134.285 127.494V133.269L193.363 151.43L193.374 151.441ZM306.036 133.28L306.047 127.494L246.968 145.656V151.43L306.047 133.269L306.036 133.28ZM309.385 114.775L222.913 141.351V158.815L241.429 153.126V143.638C241.429 142.339 242.32 141.223 243.586 140.944L307.979 121.161H307.99C308.677 120.947 309.439 121.011 310.083 121.355C310.727 121.698 311.21 122.278 311.425 122.975C311.5 123.244 311.543 123.512 311.543 123.791V131.595L325.218 127.387L330.08 125.884V108.41L329.747 108.506L309.826 114.635V114.646C309.686 114.7 309.546 114.743 309.396 114.775L309.385 114.775ZM111.766 108.882L110.252 108.41V125.884L111.164 126.163L128.768 131.573V123.77C128.768 122.857 129.218 122.01 129.981 121.494C130.732 120.979 131.698 120.872 132.546 121.204L196.939 140.987C198.098 141.341 198.882 142.414 198.882 143.617V153.116L217.419 158.815V141.341L197.046 135.083L195.533 134.622H195.543C195.404 134.589 195.264 134.546 195.125 134.493L130.776 114.71L130.733 114.7L111.777 108.871L111.766 108.882ZM193.374 128.213L134.295 110.052V104.277L193.374 122.439V128.213ZM306.035 110.052L246.957 128.213V122.439L306.035 104.277V110.052ZM217.417 118.124V135.598L198.902 129.909V120.399C198.902 119.197 198.107 118.124 196.959 117.77L132.566 97.9873H132.555C131.707 97.6546 130.752 97.7619 129.99 98.2771C129.238 98.7816 128.788 99.6403 128.777 100.553V108.356L111.174 102.946L110.261 102.667L110.272 85.1816L217.417 118.124ZM330.079 85.1825V102.657L325.238 104.149L311.563 108.346V100.543C311.563 100.263 311.52 99.9951 311.445 99.7375C311.23 99.0398 310.747 98.4495 310.103 98.106C309.459 97.7625 308.697 97.6981 308 97.9128L243.607 117.695C242.34 117.974 241.449 119.09 241.449 120.389V129.889L222.912 135.599V118.124L243.478 111.802H243.51L266.019 104.889H266.051L288.549 97.977H288.581L311.09 91.0645H311.122L330.079 85.1825ZM130.033 77.4113L233.358 109.174L220.166 113.21L116.841 81.4583L130.033 77.4113ZM152.563 70.4881L139.382 74.5241L242.696 106.286L255.866 102.24L152.564 70.4774L152.563 70.4881ZM175.093 63.5649L161.923 67.5899L265.225 99.3605L278.396 95.3137L175.104 63.5514L175.093 63.5649ZM197.624 56.6417L184.453 60.6885L287.767 92.4288L300.948 88.382L197.634 56.6307L197.624 56.6417ZM310.285 85.527L323.488 81.4589L220.163 49.6965L206.993 53.7433L310.285 85.527Z" fill="url(#paint2_radial_423_433)"/>
<defs>
<radialGradient id="paint0_radial_423_433" cx="0" cy="0" r="1" gradientUnits="userSpaceOnUse" gradientTransform="translate(220.166 332.289) rotate(90) scale(219.774 220.17)">
<stop offset="0.7" stop-color="#737373" stop-opacity="0"/>
<stop offset="1" stop-color="white"/>
</radialGradient>
<radialGradient id="paint1_radial_423_433" cx="0" cy="0" r="1" gradientUnits="userSpaceOnUse" gradientTransform="translate(220.166 332.289) rotate(90) scale(219.774 220.17)">
<stop offset="0.7" stop-color="#737373" stop-opacity="0"/>
<stop offset="1" stop-color="white"/>
</radialGradient>
<radialGradient id="paint2_radial_423_433" cx="0" cy="0" r="1" gradientUnits="userSpaceOnUse" gradientTransform="translate(224.979 318.737) rotate(-91.0248) scale(269.084 380.102)">
<stop stop-color="#999999" stop-opacity="0"/>
<stop offset="1" stop-color="white"/>
</radialGradient>
</defs>
</svg>
