<svg width="441" height="562" viewBox="0 0 441 562" fill="none" xmlns="http://www.w3.org/2000/svg">
<path d="M65.1469 487.693C23.8571 446.477 0.660709 390.577 0.660645 332.289C0.66058 274.002 23.8568 218.102 65.1465 176.886L96.2833 207.967C63.2515 240.939 44.6945 285.659 44.6946 332.289C44.6946 378.919 63.2517 423.639 96.2835 456.612L65.1469 487.693Z" fill="url(#paint0_radial_178_622)"/>
<path d="M376.514 487.693C417.804 446.477 441 390.577 441 332.289C441 274.002 417.804 218.102 376.514 176.886L345.377 207.967C378.409 240.939 396.966 285.659 396.966 332.289C396.966 378.919 378.409 423.639 345.377 456.612L376.514 487.693Z" fill="url(#paint1_radial_178_622)"/>
<path d="M165.843 190.947C189.701 191.364 209.561 172.185 209.978 148.327C210.394 124.47 191.215 104.609 167.358 104.193C143.5 103.776 123.64 122.955 123.223 146.813C122.807 170.67 141.986 190.531 165.843 190.947ZM167.547 93.3484C197.369 93.8689 221.343 118.695 220.822 148.516C220.301 178.338 195.476 202.312 165.654 201.791C135.832 201.271 111.858 176.445 112.379 146.624C112.899 116.802 137.725 92.8279 167.547 93.3484ZM169.236 151.955L142.944 166.683L139.281 159.025L161.188 146.933L161.652 120.365L169.785 120.507L169.236 151.955Z" fill="url(#paint2_radial_178_622)"/>
<path fill-rule="evenodd" clip-rule="evenodd" d="M249.116 86.8683L208.412 74.3553V70.3766L249.116 82.8895V86.8683ZM326.737 74.3553L286.033 86.8683V82.8895L326.737 70.3766V74.3553ZM269.468 107.967L282.225 104.048V97.4956C282.225 96.6082 282.838 95.8316 283.711 95.6468L328.076 82.0172L328.084 82.0098C328.557 81.8619 329.082 81.9137 329.526 82.1503C329.97 82.387 330.302 82.7863 330.45 83.267C330.502 83.4445 330.532 83.6368 330.532 83.8217V89.198L343.303 85.2711V73.2314L343.082 73.298L329.348 77.5208C329.252 77.5578 329.156 77.5873 329.053 77.6095L269.468 95.9278L269.468 107.967ZM265.681 95.9276L250.61 91.2908C250.513 91.2686 250.417 91.2464 250.321 91.2094L205.986 77.5799H205.956L192.911 73.5716L191.846 73.2314V85.2711L204.603 89.1979V83.8216C204.603 83.193 204.914 82.6088 205.439 82.2538C205.957 81.8988 206.622 81.8249 207.206 82.0541L251.572 95.6837C252.37 95.9278 252.91 96.6673 252.91 97.4956V104.04L265.682 107.967L265.681 95.9276ZM329.052 61.6057L269.468 79.924V91.9636L282.225 88.0441V81.492C282.225 80.6045 282.838 79.828 283.711 79.6357L328.076 66.0061H328.084C328.557 65.8582 329.082 65.9026 329.526 66.1393C329.97 66.3759 330.302 66.7826 330.45 67.2634C330.502 67.4408 330.532 67.6257 330.532 67.818V73.1943L339.924 70.3028L343.303 69.2675V57.2278L343.074 57.2944L329.348 61.5172C329.252 61.5542 329.156 61.5835 329.052 61.6057ZM192.889 57.5457L191.847 57.2277V69.2674L192.483 69.4596L204.596 73.187L204.603 67.8107C204.603 66.7605 205.447 65.9175 206.497 65.9175C206.733 65.9175 206.97 65.9618 207.192 66.0506L251.557 79.6801C252.356 79.9242 252.903 80.6563 252.903 81.492V88.0368L265.682 91.9637V79.924L251.646 75.6127L250.603 75.2947H250.611C250.514 75.2725 250.418 75.2429 250.322 75.2059L205.987 61.5763H205.957L192.897 57.5607L192.889 57.5457ZM249.116 70.8648V66.886L208.404 54.3657V58.3445L249.108 70.8574L249.116 70.8648ZM326.737 58.3519L326.744 54.3657L286.041 66.8787V70.8574L326.744 58.3445L326.737 58.3519ZM329.045 45.6023L269.467 63.9132V75.9454L282.224 72.0259V65.4885C282.224 64.5936 282.838 63.8245 283.711 63.6323L328.076 50.0027H328.083C328.557 49.8548 329.082 49.8992 329.526 50.1358C329.969 50.3725 330.302 50.7718 330.45 51.2525C330.502 51.4374 330.531 51.6222 330.531 51.8145V57.1909L339.953 54.292L343.303 53.2566V41.217L343.074 41.2835L329.348 45.5063V45.5137C329.252 45.5507 329.156 45.5803 329.052 45.6025L329.045 45.6023ZM192.889 41.5423L191.846 41.2169V53.2565L192.475 53.4488L204.603 57.1762V51.7998C204.603 51.1712 204.914 50.587 205.439 50.232C205.956 49.8771 206.622 49.8031 207.206 50.0324L251.572 63.6619C252.37 63.906 252.91 64.6455 252.91 65.4738V72.0186L265.682 75.9455V63.9058L251.645 59.5944L250.603 59.2764H250.61C250.514 59.2542 250.418 59.2247 250.322 59.1877L205.987 45.5581L205.957 45.5507L192.897 41.535L192.889 41.5423ZM249.115 54.8614L208.411 42.3484V38.3696L249.115 50.8826V54.8614ZM326.737 42.3484L286.033 54.8614V50.8826L326.737 38.3696V42.3484ZM265.681 47.9097V59.9493L252.924 56.0298V49.4776C252.924 48.6494 252.377 47.9098 251.585 47.6658L207.22 34.0362H207.212C206.628 33.807 205.97 33.8809 205.445 34.2359C204.927 34.5835 204.617 35.1751 204.609 35.8037V41.18L192.481 37.4527L191.852 37.2604L191.86 25.2134L265.681 47.9097ZM343.302 25.2139V37.2536L339.967 38.2815L330.545 41.173V35.7967C330.545 35.6044 330.516 35.4196 330.464 35.2421C330.316 34.7614 329.983 34.3546 329.539 34.118C329.096 33.8813 328.571 33.8369 328.09 33.9849L283.725 47.6144C282.852 47.8067 282.238 48.5758 282.238 49.4707V56.0155L269.466 59.9497V47.9101L283.636 43.5542H283.658L299.166 38.7917H299.188L314.689 34.0291H314.711L330.219 29.2666H330.241L343.302 25.2139ZM205.475 19.8598L276.663 41.7433L267.574 44.5241L196.386 22.6481L205.475 19.8598ZM220.998 15.0898L211.916 17.8706L283.097 39.7541L292.171 36.966L220.998 15.0825L220.998 15.0898ZM236.521 10.3199L227.446 13.0931L298.62 34.9823L307.694 32.1942L236.528 10.3106L236.521 10.3199ZM252.043 5.54997L242.969 8.33809L314.15 30.2065L323.231 27.4184L252.051 5.5424L252.043 5.54997ZM329.665 25.4513L338.761 22.6485L267.573 0.764893L258.499 3.55302L329.665 25.4513Z" fill="url(#paint3_radial_178_622)"/>
<path d="M286.917 79.2299L263.497 70.7056L269.083 82.6848L241.131 95.7189L244.855 103.705L272.807 90.671L278.393 102.65M234.738 113.284L226.214 136.705L249.634 145.229L244.048 133.25L272 120.216L268.275 112.229L240.324 125.263L234.738 113.284Z" fill="url(#paint4_radial_178_622)"/>
<defs>
<radialGradient id="paint0_radial_178_622" cx="0" cy="0" r="1" gradientUnits="userSpaceOnUse" gradientTransform="translate(220.83 332.289) rotate(90) scale(219.774 220.17)">
<stop offset="0.7" stop-color="#737373" stop-opacity="0"/>
<stop offset="1" stop-color="white"/>
</radialGradient>
<radialGradient id="paint1_radial_178_622" cx="0" cy="0" r="1" gradientUnits="userSpaceOnUse" gradientTransform="translate(220.83 332.289) rotate(90) scale(219.774 220.17)">
<stop offset="0.7" stop-color="#737373" stop-opacity="0"/>
<stop offset="1" stop-color="white"/>
</radialGradient>
<radialGradient id="paint2_radial_178_622" cx="0" cy="0" r="1" gradientUnits="userSpaceOnUse" gradientTransform="translate(166.6 290.528) rotate(-90) scale(197.188)">
<stop stop-color="#999999" stop-opacity="0"/>
<stop offset="1" stop-color="white"/>
</radialGradient>
<radialGradient id="paint3_radial_178_622" cx="0" cy="0" r="1" gradientUnits="userSpaceOnUse" gradientTransform="translate(267.575 195.667) rotate(-90) scale(194.902 275.36)">
<stop stop-color="#999999" stop-opacity="0"/>
<stop offset="1" stop-color="white"/>
</radialGradient>
<radialGradient id="paint4_radial_178_622" cx="0" cy="0" r="1" gradientUnits="userSpaceOnUse" gradientTransform="translate(290.925 181.652) rotate(-115) scale(112.143 144.184)">
<stop stop-color="#999999" stop-opacity="0"/>
<stop offset="1" stop-color="white"/>
</radialGradient>
</defs>
</svg>
